<svg width="175" height="175" viewBox="0 0 175 175" fill="none" xmlns="http://www.w3.org/2000/svg">
<path d="M87.5 175C135.825 175 175 135.825 175 87.5C175 39.1751 135.825 0 87.5 0C39.1751 0 0 39.1751 0 87.5C0 135.825 39.1751 175 87.5 175Z" fill="#111827"/>
<path d="M87.75 155.5C125.72 155.5 156.5 124.72 156.5 86.75C156.5 48.7804 125.72 18 87.75 18C49.7804 18 19 48.7804 19 86.75C19 124.72 49.7804 155.5 87.75 155.5Z" stroke="#334155" stroke-width="10"/>
<path d="M88 25L72 87H104L88 25Z" fill="#14B8A6"/>
<path d="M88 149L104 87H72L88 149Z" fill="#FBBF24"/>
<path d="M88.375 96.75C93.5527 96.75 97.75 92.5527 97.75 87.375C97.75 82.1973 93.5527 78 88.375 78C83.1973 78 79 82.1973 79 87.375C79 92.5527 83.1973 96.75 88.375 96.75Z" fill="#F9FAFB"/>
<circle cx="34" cy="34" r="34" fill="#FBBF24"/>
<path d="M41.4201 16.048H52.0947L56 12H15.9053L12 16.048H18.7692C25.7988 16.048 32.3077 16.4 34.9112 20.448H15.9053L12 24.496H35.6923V24.672C35.6923 27.664 32.0473 32.24 20.071 32.24H14.0828V36.112L37.5148 56H48.1894L23.716 35.408C33.8698 35.056 43.2426 31.184 44.5444 24.496H52.0947L56 20.448H44.284C44.0237 18.864 42.9822 17.28 41.4201 16.048Z" fill="#F9FAFB"/>
</svg>
